<svg width="16" height="32" viewBox="0 0 16 32" fill="none" xmlns="http://www.w3.org/2000/svg">
<path d="M7.71429 0L15.4286 3.67599V6.85714L7.71429 3.18115L1.00758e-06 6.85714L8.68525e-07 3.67599L7.71429 0Z" fill="#312E81"/>
<path d="M7.71429 8.28571C3.45306 8.28571 1.00758e-06 11.7388 1.00758e-06 16C1.00758e-06 20.2612 3.45306 23.7143 7.71429 23.7143C11.9755 23.7143 15.4286 20.2612 15.4286 16C15.4286 11.7388 11.9755 8.28571 7.71429 8.28571Z" fill="#312E81"/>
<path d="M7.71429 32L0 28.324L1.39053e-07 25.1429L7.71429 28.8189L15.4286 25.1429V28.324L7.71429 32Z" fill="#312E81"/>
</svg>
